<?xml version="1.0" encoding="utf-8"?>
<!-- Generator: Adobe Illustrator 18.0.0, SVG Export Plug-In . SVG Version: 6.00 Build 0)  -->
<!DOCTYPE svg PUBLIC "-//W3C//DTD SVG 1.1//EN" "http://www.w3.org/Graphics/SVG/1.1/DTD/svg11.dtd">
<svg version="1.1" id="Capa_1" xmlns="http://www.w3.org/2000/svg" xmlns:xlink="http://www.w3.org/1999/xlink" x="0px" y="0px"
	 viewBox="0 0 128.7 105.5" enable-background="new 0 0 128.7 105.5" xml:space="preserve">
<g>
	<polygon fill="#906538" points="22,69.9 22,77.5 33.2,84.4 39.6,96.1 52.9,96.1 64.4,102.7 75.8,96.1 89.1,96.1 95.5,84.4 
		106.7,77.5 106.7,69.9 98.7,69.9 98.7,73.1 89.7,78.6 84.7,88 73.8,88 64.4,93.5 54.9,88 44,88 39,78.6 30.1,73.1 30.1,69.9 	"/>
	<polygon fill="#906538" points="106.7,37.6 106.7,28 95.5,21.1 89.1,9.4 75.8,9.4 64.4,2.7 52.9,9.4 39.6,9.4 33.2,21.1 22,28 
		22,37.6 30.1,37.6 30.1,32.4 39,26.9 44,17.4 54.9,17.4 64.4,12 73.8,17.4 84.7,17.4 89.7,26.9 98.7,32.4 98.7,37.6 	"/>
	<polygon fill="#C6931E" points="82.3,21.5 72.7,21.5 64.4,16.7 56,21.5 46.4,21.5 42,29.9 34.1,34.8 34.1,37.6 94.6,37.6 
		94.6,34.8 86.7,29.9 	"/>
	<polygon fill="#C6931E" points="46.4,84 56,84 64.4,88.8 72.7,84 82.3,84 86.7,75.6 94.6,70.7 94.6,69.9 34.1,69.9 34.1,70.7 
		42,75.6 	"/>
	<polygon fill="#0081BC" points="22,67.9 30.1,67.9 32.1,67.9 34.1,67.9 94.6,67.9 96.6,67.9 98.7,67.9 106.7,67.9 124.9,67.9 
		118.5,53 124.9,39.6 106.7,39.6 98.7,39.6 96.6,39.6 94.6,39.6 34.1,39.6 32.1,39.6 30.1,39.6 22,39.6 3.8,39.6 10.2,54 3.8,67.9 	
		"/>
	<g>
		<path fill="#FFFFFF" d="M29.2,43.8H34c2.1,0,3.7,0.4,4.7,1.1c1,0.7,1.5,1.8,1.5,3.3c0,1-0.3,1.8-0.9,2.5c-0.6,0.7-1.5,1.1-2.7,1.3
			V52c1.4,0.2,2.4,0.6,3,1.3c0.7,0.7,1,1.6,1,2.8c0,1.6-0.5,2.8-1.6,3.7c-1.1,0.9-2.6,1.3-4.5,1.3h-5.3V43.8z M30.4,51.5h3.8
			c1.6,0,2.8-0.3,3.5-0.8c0.7-0.5,1.1-1.4,1.1-2.5s-0.4-2-1.2-2.5c-0.8-0.5-2.1-0.8-3.7-0.8h-3.5V51.5z M30.4,52.5V60h4.1
			c3.2,0,4.8-1.3,4.8-3.9c0-2.4-1.7-3.6-5.1-3.6H30.4z"/>
		<path fill="#FFFFFF" d="M49.2,48c0.5,0,1.1,0.1,1.7,0.2l-0.2,1.1c-0.5-0.1-1.1-0.2-1.7-0.2c-1.1,0-2,0.5-2.7,1.4
			c-0.7,0.9-1.1,2.1-1.1,3.5v7.1h-1.2V48.2h1l0.1,2.3h0.1c0.5-0.9,1.1-1.6,1.7-2C47.6,48.2,48.3,48,49.2,48z"/>
		<path fill="#FFFFFF" d="M64.2,54.6c0,2.1-0.5,3.7-1.5,4.9c-1,1.2-2.4,1.8-4.2,1.8c-1.1,0-2.1-0.3-3-0.8s-1.5-1.3-2-2.3
			s-0.7-2.2-0.7-3.5c0-2.1,0.5-3.7,1.5-4.9c1-1.2,2.4-1.8,4.2-1.8c1.8,0,3.2,0.6,4.2,1.8C63.7,50.9,64.2,52.6,64.2,54.6z M54,54.6
			c0,1.8,0.4,3.1,1.2,4.1c0.8,1,1.9,1.5,3.3,1.5s2.5-0.5,3.3-1.5c0.8-1,1.2-2.4,1.2-4.1c0-1.8-0.4-3.1-1.2-4.1
			c-0.8-1-1.9-1.5-3.3-1.5c-1.4,0-2.5,0.5-3.3,1.5C54.4,51.5,54,52.8,54,54.6z"/>
		<path fill="#FFFFFF" d="M76.7,61.1v-8.3c0-1.3-0.3-2.2-0.8-2.8S74.5,49,73.3,49c-1.5,0-2.7,0.4-3.4,1.2c-0.7,0.8-1.1,2-1.1,3.8
			v7.1h-1.2V48.2h1l0.2,1.8H69c0.8-1.3,2.3-2,4.5-2c2.9,0,4.4,1.6,4.4,4.7v8.4H76.7z"/>
		<path fill="#FFFFFF" d="M87.1,61.3c-1.8,0-3.3-0.6-4.3-1.7c-1-1.2-1.6-2.8-1.6-4.8c0-2.1,0.5-3.8,1.6-5c1.1-1.2,2.6-1.8,4.4-1.8
			c1.1,0,2.2,0.2,3.2,0.6l-0.3,1c-1.1-0.4-2.1-0.6-2.9-0.6c-1.6,0-2.8,0.5-3.6,1.5c-0.8,1-1.2,2.4-1.2,4.2c0,1.7,0.4,3.1,1.2,4.1
			c0.8,1,1.9,1.5,3.4,1.5c1.2,0,2.3-0.2,3.3-0.6v1.1C89.5,61.1,88.5,61.3,87.1,61.3z"/>
		<path fill="#FFFFFF" d="M98.7,61.3c-1.9,0-3.3-0.6-4.4-1.7c-1-1.2-1.6-2.8-1.6-4.8c0-2,0.5-3.7,1.5-4.9s2.4-1.8,4.1-1.8
			c1.5,0,2.7,0.5,3.6,1.6c0.9,1.1,1.3,2.5,1.3,4.3v0.9H94c0,1.8,0.4,3.1,1.2,4c0.8,0.9,2,1.4,3.5,1.4c0.7,0,1.4-0.1,1.9-0.2
			s1.3-0.3,2.1-0.7v1.1c-0.7,0.3-1.4,0.5-2,0.6C100.1,61.3,99.4,61.3,98.7,61.3z M98.3,49c-1.2,0-2.2,0.4-3,1.2
			c-0.7,0.8-1.2,2-1.3,3.5h7.9c0-1.5-0.3-2.7-1-3.5C100.4,49.4,99.5,49,98.3,49z"/>
	</g>
</g>
</svg>
