<?xml version="1.0" encoding="utf-8"?>
<!-- Generator: Adobe Illustrator 16.0.0, SVG Export Plug-In . SVG Version: 6.00 Build 0)  -->
<!DOCTYPE svg PUBLIC "-//W3C//DTD SVG 1.1//EN" "http://www.w3.org/Graphics/SVG/1.1/DTD/svg11.dtd">
<svg version="1.1" id="Layer_1" xmlns="http://www.w3.org/2000/svg" xmlns:xlink="http://www.w3.org/1999/xlink" x="0px" y="0px"
	 width="64px" height="64px" viewBox="0 0 64 64" enable-background="new 0 0 64 64" xml:space="preserve">
<g>
	<path d="M48.937,63.425c0.227-0.744,0.475-1.52,0.641-1.919c3.942-9.516,3.495-19.57,3.32-22.79
		c-0.121-2.174-0.334-4.01-1.548-5.467c-1.793-2.139-4.543-2.805-5.717-3.001c-0.747-1.875-1.887-3.108-3.394-3.673
		c-0.589-0.221-1.231-0.333-1.905-0.333c-1.133,0-2.152,0.311-2.836,0.588c-0.905-1.643-2.113-2.662-3.594-3.033
		c-0.406-0.103-0.836-0.155-1.277-0.155c-1.41,0-2.7,0.532-3.577,1.008c-0.228-1.518-1.023-13.791-1.494-20.52
		c-0.15-2.155-1.942-3.83-4.103-3.83H23.45c-2.308,0-4.181,1.865-4.19,4.172c-0.071,14.588-0.45,28.997-0.539,31.18
		c-1.417,0.644-3.885,1.504-4.983,2.993c-2.512,3.407-1.419,6.077-0.174,8.161c2.811,4.71,7.706,13.131,9.791,16.619L48.937,63.425
		L48.937,63.425z"/>
</g>
</svg>
