<?xml version="1.0" encoding="iso-8859-1"?>
<!-- Generator: Adobe Illustrator 16.0.0, SVG Export Plug-In . SVG Version: 6.00 Build 0)  -->
<!DOCTYPE svg PUBLIC "-//W3C//DTD SVG 1.1//EN" "http://www.w3.org/Graphics/SVG/1.1/DTD/svg11.dtd">
<svg version="1.1" id="Capa_1" xmlns="http://www.w3.org/2000/svg" xmlns:xlink="http://www.w3.org/1999/xlink" x="0px" y="0px"
	 width="27.023px" height="31.273px" viewBox="0 0 27.023 31.273" style="enable-background:new 0 0 27.023 31.273;"
	 xml:space="preserve">
<path style="fill:#000000;" d="M22.173,19.042c0.067-0.217,0.113-0.458,0.115-0.738c0.018-1.226,0.551-2.149,1.603-2.775
	c1.052-0.627,1.279-1.474,0.682-2.541c-0.599-1.068-0.599-2.137,0-3.205c0.598-1.068,0.37-1.914-0.682-2.541
	c-1.052-0.625-1.585-1.551-1.603-2.774c-0.017-1.222-0.635-1.844-1.859-1.859c-1.223-0.016-2.147-0.55-2.775-1.602
	c-0.625-1.052-1.471-1.28-2.538-0.68c-1.07,0.596-2.139,0.596-3.205,0c-1.067-0.6-1.915-0.372-2.543,0.68
	c-0.624,1.052-1.55,1.586-2.775,1.602C5.37,2.624,4.749,3.245,4.733,4.467c-0.017,1.224-0.55,2.149-1.602,2.774
	C2.081,7.869,1.853,8.715,2.45,9.783c0.6,1.067,0.6,2.136,0,3.205c-0.598,1.067-0.369,1.914,0.682,2.541
	c1.052,0.625,1.585,1.549,1.602,2.775c0.004,0.222,0.048,0.402,0.092,0.586L0,28.372l4.031-0.451l2.231,3.352
	c0,0,2.925-6.1,4.128-8.582c0.443,0.149,0.949,0.073,1.52-0.245c1.066-0.599,2.135-0.599,3.205,0
	c0.602,0.337,1.133,0.402,1.594,0.213l4.954,8.518l1.392-3.611l3.969,0.515L22.173,19.042z M13.511,18.688
	c-4.144,0-7.505-3.359-7.505-7.502c0-4.145,3.361-7.506,7.505-7.506c4.145,0,7.505,3.361,7.505,7.506
	C21.016,15.329,17.655,18.688,13.511,18.688z"/>
<circle style="fill:#000000;" cx="13.512" cy="11.255" r="5.9"/>
<g>
</g>
<g>
</g>
<g>
</g>
<g>
</g>
<g>
</g>
<g>
</g>
<g>
</g>
<g>
</g>
<g>
</g>
<g>
</g>
<g>
</g>
<g>
</g>
<g>
</g>
<g>
</g>
<g>
</g>
</svg>
