<?xml version="1.0" encoding="utf-8"?>
<!-- Generator: Adobe Illustrator 18.0.0, SVG Export Plug-In . SVG Version: 6.00 Build 0)  -->
<!DOCTYPE svg PUBLIC "-//W3C//DTD SVG 1.1//EN" "http://www.w3.org/Graphics/SVG/1.1/DTD/svg11.dtd">
<svg version="1.1" id="Capa_1" xmlns="http://www.w3.org/2000/svg" xmlns:xlink="http://www.w3.org/1999/xlink" x="0px" y="0px"
	 viewBox="0 0 128.7 105.5" enable-background="new 0 0 128.7 105.5" xml:space="preserve">
<g>
	<polygon fill="#F49C14" points="22,69.9 22,77.5 33.2,84.4 39.6,96.1 52.9,96.1 64.4,102.7 75.8,96.1 89.1,96.1 95.5,84.4 
		106.7,77.5 106.7,69.9 98.7,69.9 98.7,73.1 89.7,78.6 84.7,88 73.8,88 64.4,93.5 54.9,88 44,88 39,78.6 30.1,73.1 30.1,69.9 	"/>
	<polygon fill="#F49C14" points="106.7,37.6 106.7,28 95.5,21.1 89.1,9.4 75.8,9.4 64.4,2.7 52.9,9.4 39.6,9.4 33.2,21.1 22,28 
		22,37.6 30.1,37.6 30.1,32.4 39,26.9 44,17.4 54.9,17.4 64.4,12 73.8,17.4 84.7,17.4 89.7,26.9 98.7,32.4 98.7,37.6 	"/>
	<polygon fill="#F1C40F" points="82.3,21.5 72.7,21.5 64.4,16.7 56,21.5 46.4,21.5 42,29.9 34.1,34.8 34.1,37.6 94.6,37.6 
		94.6,34.8 86.7,29.9 	"/>
	<polygon fill="#F1C40F" points="46.4,84 56,84 64.4,88.8 72.7,84 82.3,84 86.7,75.6 94.6,70.7 94.6,69.9 34.1,69.9 34.1,70.7 
		42,75.6 	"/>
	<polygon fill="#C1392B" points="22,67.9 30.1,67.9 32.1,67.9 34.1,67.9 94.6,67.9 96.6,67.9 98.7,67.9 106.7,67.9 124.9,67.9 
		118.5,53 124.9,39.6 106.7,39.6 98.7,39.6 96.6,39.6 94.6,39.6 34.1,39.6 32.1,39.6 30.1,39.6 22,39.6 3.8,39.6 10.2,54 3.8,67.9 	
		"/>
	<g>
		<path fill="#FFFFFF" d="M60.2,52.4c0,2.7-0.7,4.9-2.1,6.5c-1.4,1.6-3.3,2.4-5.7,2.4c-2.4,0-4.3-0.8-5.7-2.4
			c-1.4-1.6-2.1-3.8-2.1-6.5c0-2.8,0.7-4.9,2.1-6.5s3.3-2.4,5.7-2.4c2.4,0,4.3,0.8,5.7,2.4C59.5,47.5,60.2,49.7,60.2,52.4z
			 M46.1,52.4c0,2.5,0.6,4.4,1.7,5.7c1.1,1.4,2.7,2,4.8,2c2.1,0,3.7-0.7,4.8-2c1.1-1.3,1.6-3.3,1.6-5.8c0-2.5-0.5-4.4-1.6-5.7
			c-1.1-1.3-2.7-2-4.7-2c-2.1,0-3.6,0.7-4.8,2S46.1,49.9,46.1,52.4z"/>
		<path fill="#FFFFFF" d="M69,48c0.5,0,1.1,0.1,1.7,0.2l-0.2,1.1c-0.5-0.1-1.1-0.2-1.7-0.2c-1.1,0-2,0.5-2.7,1.4
			c-0.7,0.9-1.1,2.1-1.1,3.5v7.1h-1.2V48.2h1l0.1,2.3h0.1c0.5-0.9,1.1-1.6,1.7-2C67.4,48.2,68.1,48,69,48z"/>
		<path fill="#FFFFFF" d="M83.9,54.6c0,2.1-0.5,3.7-1.5,4.9c-1,1.2-2.4,1.8-4.2,1.8c-1.1,0-2.1-0.3-3-0.8s-1.5-1.3-2-2.3
			s-0.7-2.2-0.7-3.5c0-2.1,0.5-3.7,1.5-4.9c1-1.2,2.4-1.8,4.2-1.8c1.8,0,3.2,0.6,4.2,1.8C83.4,50.9,83.9,52.6,83.9,54.6z M73.8,54.6
			c0,1.8,0.4,3.1,1.2,4.1c0.8,1,1.9,1.5,3.3,1.5s2.5-0.5,3.3-1.5c0.8-1,1.2-2.4,1.2-4.1c0-1.8-0.4-3.1-1.2-4.1
			c-0.8-1-1.9-1.5-3.3-1.5c-1.4,0-2.5,0.5-3.3,1.5C74.2,51.5,73.8,52.8,73.8,54.6z"/>
	</g>
	<rect id="_x3C_Sector_x3E__2_" x="19.4" y="5.2" fill="none" width="90" height="62"/>
</g>
</svg>
