<?xml version="1.0" encoding="utf-8"?>
<!-- Generator: Adobe Illustrator 18.0.0, SVG Export Plug-In . SVG Version: 6.00 Build 0)  -->
<!DOCTYPE svg PUBLIC "-//W3C//DTD SVG 1.1//EN" "http://www.w3.org/Graphics/SVG/1.1/DTD/svg11.dtd">
<svg version="1.1" id="Capa_1" xmlns="http://www.w3.org/2000/svg" xmlns:xlink="http://www.w3.org/1999/xlink" x="0px" y="0px"
	 viewBox="0 0 128.7 105.5" enable-background="new 0 0 128.7 105.5" xml:space="preserve">
<g>
	<polygon fill="#BEC3C7" points="22,69.9 22,77.5 33.2,84.4 39.6,96.1 52.9,96.1 64.4,102.7 75.8,96.1 89.1,96.1 95.5,84.4 
		106.7,77.5 106.7,69.9 98.7,69.9 98.7,73.1 89.7,78.6 84.7,88 73.8,88 64.4,93.5 54.9,88 44,88 39,78.6 30.1,73.1 30.1,69.9 	"/>
	<polygon fill="#BEC3C7" points="106.7,37.6 106.7,28 95.5,21.1 89.1,9.4 75.8,9.4 64.4,2.7 52.9,9.4 39.6,9.4 33.2,21.1 22,28 
		22,37.6 30.1,37.6 30.1,32.4 39,26.9 44,17.4 54.9,17.4 64.4,12 73.8,17.4 84.7,17.4 89.7,26.9 98.7,32.4 98.7,37.6 	"/>
	<polygon fill="#ECF0F1" points="82.3,21.5 72.7,21.5 64.4,16.7 56,21.5 46.4,21.5 42,29.9 34.1,34.8 34.1,37.6 94.6,37.6 
		94.6,34.8 86.7,29.9 	"/>
	<polygon fill="#ECF0F1" points="46.4,84 56,84 64.4,88.8 72.7,84 82.3,84 86.7,75.6 94.6,70.7 94.6,69.9 34.1,69.9 34.1,70.7 
		42,75.6 	"/>
	<polygon fill="#9C59B8" points="22,67.9 30.1,67.9 32.1,67.9 34.1,67.9 94.6,67.9 96.6,67.9 98.7,67.9 106.7,67.9 124.9,67.9 
		118.5,53 124.9,39.6 106.7,39.6 98.7,39.6 96.6,39.6 94.6,39.6 34.1,39.6 32.1,39.6 30.1,39.6 22,39.6 3.8,39.6 10.2,54 3.8,67.9 	
		"/>
	<g>
		<path fill="#FFFFFF" d="M49.1,48.7c0,1.7-0.6,3-1.7,3.8s-2.7,1.3-4.8,1.3h-2.7v7.1h-1.2V43.8H43C47.1,43.8,49.1,45.4,49.1,48.7z
			 M39.9,52.9h2.4c1.9,0,3.4-0.3,4.2-1s1.3-1.7,1.3-3.1c0-1.3-0.4-2.3-1.2-3c-0.8-0.6-2.1-1-3.8-1h-2.9V52.9z"/>
		<path fill="#FFFFFF" d="M53.8,61.1h-1.2V42.7h1.2V61.1z"/>
		<path fill="#FFFFFF" d="M65.9,61.1l-0.3-2h-0.1c-0.6,0.8-1.3,1.4-2,1.8c-0.7,0.3-1.5,0.5-2.4,0.5c-1.3,0-2.2-0.3-2.9-1
			c-0.7-0.6-1.1-1.5-1.1-2.7c0-1.3,0.5-2.2,1.6-2.9c1-0.7,2.6-1.1,4.5-1.1l2.4-0.1v-0.9c0-1.2-0.2-2.1-0.7-2.8
			c-0.5-0.6-1.3-0.9-2.4-0.9c-1.2,0-2.4,0.3-3.7,1l-0.4-1c1.4-0.7,2.8-1,4.2-1c1.4,0,2.5,0.4,3.2,1.1c0.7,0.7,1,1.9,1,3.4v8.5H65.9z
			 M61.1,60.2c1.4,0,2.5-0.4,3.2-1.2c0.8-0.8,1.2-1.9,1.2-3.3v-1.3l-2.2,0.1c-1.8,0.1-3.1,0.4-3.9,0.8c-0.8,0.5-1.2,1.2-1.2,2.2
			c0,0.8,0.2,1.4,0.7,1.9C59.5,60,60.2,60.2,61.1,60.2z"/>
		<path fill="#FFFFFF" d="M74.3,60.3c0.7,0,1.4-0.1,1.9-0.2V61c-0.6,0.2-1.2,0.3-2,0.3c-1.1,0-2-0.3-2.5-0.9
			c-0.5-0.6-0.8-1.6-0.8-2.9v-8.3H69v-0.7l1.9-0.5l0.6-2.9h0.6v3.1h3.8v1h-3.8v8.1c0,1,0.2,1.7,0.5,2.2C73,60,73.5,60.3,74.3,60.3z"
			/>
		<path fill="#FFFFFF" d="M86.8,61.1l-0.3-2h-0.1c-0.6,0.8-1.3,1.4-2,1.8c-0.7,0.3-1.5,0.5-2.4,0.5c-1.3,0-2.2-0.3-2.9-1
			c-0.7-0.6-1.1-1.5-1.1-2.7c0-1.3,0.5-2.2,1.6-2.9c1-0.7,2.6-1.1,4.5-1.1l2.4-0.1v-0.9c0-1.2-0.2-2.1-0.7-2.8
			c-0.5-0.6-1.3-0.9-2.4-0.9c-1.2,0-2.4,0.3-3.7,1l-0.4-1c1.4-0.7,2.8-1,4.2-1c1.4,0,2.5,0.4,3.2,1.1c0.7,0.7,1,1.9,1,3.4v8.5H86.8z
			 M82.1,60.2c1.4,0,2.5-0.4,3.2-1.2c0.8-0.8,1.2-1.9,1.2-3.3v-1.3l-2.2,0.1c-1.8,0.1-3.1,0.4-3.9,0.8c-0.8,0.5-1.2,1.2-1.2,2.2
			c0,0.8,0.2,1.4,0.7,1.9C80.5,60,81.2,60.2,82.1,60.2z"/>
	</g>
</g>
</svg>
