<?xml version="1.0" encoding="utf-8"?>
<!-- Generator: Adobe Illustrator 17.0.2, SVG Export Plug-In . SVG Version: 6.00 Build 0)  -->
<!DOCTYPE svg PUBLIC "-//W3C//DTD SVG 1.1//EN" "http://www.w3.org/Graphics/SVG/1.1/DTD/svg11.dtd">
<svg version="1.1" id="Capa_1" xmlns="http://www.w3.org/2000/svg" xmlns:xlink="http://www.w3.org/1999/xlink" x="0px" y="0px"
	 width="64px" height="64px" viewBox="0 0 64 64" enable-background="new 0 0 64 64" xml:space="preserve">
<g>
	<polygon points="11,41 11,44.753 16.575,48.175 19.747,54 26.313,54 32,57.283 37.687,54 44.253,54 47.425,48.175 53,44.753 53,41 
		49,41 49,42.567 44.547,45.296 42.067,50 36.672,50 32,52.698 27.328,50 21.933,50 19.453,45.296 15,42.567 15,41 	"/>
	<polygon points="53,25 53,20.247 47.425,16.825 44.253,11 37.687,11 32,7.717 26.313,11 19.747,11 16.575,16.825 11,20.247 11,25 
		15,25 15,22.433 19.453,19.704 21.933,15 27.328,15 32,12.302 36.672,15 42.067,15 44.547,19.704 49,22.433 49,25 	"/>
	<polygon points="40.913,17 36.137,17 32,14.612 27.863,17 23.087,17 20.918,21.168 17,23.587 17,25 47,25 47,23.587 43.082,21.168 
			"/>
	<polygon points="23.087,48 27.863,48 32,50.388 36.137,48 40.913,48 43.082,43.832 47,41.413 47,41 17,41 17,41.413 20.918,43.832 
			"/>
	<polygon points="11,40 15,40 16,40 17,40 47,40 48,40 49,40 53,40 62,40 58.842,32.606 62,26 53,26 49,26 48,26 47,26 17,26 16,26 
		15,26 11,26 2,26 5.158,33.132 2,40 	"/>
</g>
</svg>
