<?xml version="1.0" encoding="utf-8"?>
<!-- Generated by IcoMoon.io -->
<!DOCTYPE svg PUBLIC "-//W3C//DTD SVG 1.1//EN" "http://www.w3.org/Graphics/SVG/1.1/DTD/svg11.dtd">
<svg version="1.1" xmlns="http://www.w3.org/2000/svg" xmlns:xlink="http://www.w3.org/1999/xlink" width="38" height="32" viewBox="0 0 38 32">
<g id="icomoon-ignore">
	<line stroke-width="1" x1="" y1="" x2="" y2="" stroke="#449FDB" opacity=""></line>
</g>
	<path d="M5.856 21.116v2.307l3.431 2.129 1.952 3.549h4.022l3.549 2.011 3.49-2.011h4.022l1.952-3.549 3.431-2.129v-2.307h-2.484v0.946l-2.721 1.715-1.538 2.898h-3.312l-2.839 1.656-2.898-1.656h-3.312l-1.538-2.898-2.721-1.715v-0.946z" fill="#F49C14" fill="#000000"></path>
	<path d="M31.704 11.298v-2.957l-3.431-2.070-1.952-3.608h-4.022l-3.49-2.011-3.549 2.011h-4.022l-1.952 3.608-3.431 2.070v2.957h2.484v-1.597l2.721-1.656 1.538-2.898h3.312l2.898-1.656 2.839 1.656h3.312l1.538 2.898 2.721 1.656v1.597z" fill="#F49C14" fill="#000000"></path>
	<path d="M24.251 6.388h-2.898l-2.543-1.479-2.543 1.479h-2.957l-1.36 2.543-2.366 1.479v0.887h18.396v-0.887l-2.366-1.479z" fill="#F1C40F" fill="#000000"></path>
	<path d="M13.309 25.434h2.958l2.543 1.479 2.543-1.479h2.898l1.36-2.603 2.366-1.479v-0.237h-18.396v0.237l2.366 1.479z" fill="#F1C40F" fill="#000000"></path>
	<path d="M5.856 20.525h31.349l-1.893-4.555 1.893-4.081h-36.85l1.893 4.377-1.893 4.259z" fill="#C1392B" fill="#000000"></path>
</svg>
