<?xml version="1.0" encoding="utf-8"?>
<!-- Generated by IcoMoon.io -->
<!DOCTYPE svg PUBLIC "-//W3C//DTD SVG 1.1//EN" "http://www.w3.org/Graphics/SVG/1.1/DTD/svg11.dtd">
<svg version="1.1" xmlns="http://www.w3.org/2000/svg" xmlns:xlink="http://www.w3.org/1999/xlink" width="32" height="32" viewBox="0 0 32 32">
<g id="icomoon-ignore">
	<line stroke-width="1" x1="" y1="" x2="" y2="" stroke="#449FDB" opacity=""></line>
</g>
	<path d="M5.5 20.5v1.9l2.8 1.7 1.55 2.9h3.3l2.85 1.65 2.85-1.65h3.3l1.55-2.9 2.8-1.7v-1.9h-2v0.8l-2.25 1.35-1.2 2.35h-2.7l-2.35 1.35-2.35-1.35h-2.7l-1.2-2.35-2.25-1.35v-0.8z" fill="#AD531F" fill="#000000"></path>
	<path d="M26.5 12.5v-2.4l-2.8-1.7-1.55-2.9h-3.3l-2.85-1.65-2.85 1.65h-3.3l-1.55 2.9-2.8 1.7v2.4h2v-1.3l2.25-1.35 1.2-2.35h2.7l2.35-1.35 2.35 1.35h2.7l1.2 2.35 2.25 1.35v1.3z" fill="#AD531F" fill="#000000"></path>
	<path d="M20.45 8.5h-2.4l-2.050-1.2-2.050 1.2h-2.4l-1.1 2.1-1.95 1.2v0.7h15v-0.7l-1.95-1.2z" fill="#C18704" fill="#000000"></path>
	<path d="M11.55 24h2.4l2.050 1.2 2.050-1.2h2.4l1.1-2.1 1.95-1.2v-0.2h-15v0.2l1.95 1.2z" fill="#C18704" fill="#000000"></path>
	<path d="M5.5 20h25.5l-1.6-3.7 1.6-3.3h-30l1.6 3.55-1.6 3.45z" fill="#0081BC" fill="#000000"></path>
</svg>
