<?xml version="1.0" encoding="utf-8"?>
<!-- Generated by IcoMoon.io -->
<!DOCTYPE svg PUBLIC "-//W3C//DTD SVG 1.1//EN" "http://www.w3.org/Graphics/SVG/1.1/DTD/svg11.dtd">
<svg version="1.1" xmlns="http://www.w3.org/2000/svg" xmlns:xlink="http://www.w3.org/1999/xlink" width="38" height="32" viewBox="0 0 38 32">
<g id="icomoon-ignore">
	<line stroke-width="1" x1="" y1="" x2="" y2="" stroke="#449FDB" opacity=""></line>
</g>
	<path d="M5.856 21.116v2.307l3.431 2.129 1.952 3.549h4.022l3.549 2.011 3.49-2.011h4.022l1.952-3.549 3.431-2.129v-2.307h-2.484v0.946l-2.721 1.715-1.538 2.898h-3.312l-2.839 1.656-2.898-1.656h-3.312l-1.538-2.898-2.721-1.715v-0.946z" fill="#F49C14" fill="#000000"></path>
	<path d="M31.704 11.298v-2.957l-3.431-2.070-1.952-3.608h-4.022l-3.49-2.011-3.549 2.011h-4.022l-1.952 3.608-3.431 2.070v2.957h2.484v-1.597l2.721-1.656 1.538-2.898h3.312l2.898-1.656 2.839 1.656h3.312l1.538 2.898 2.721 1.656v1.597z" fill="#F49C14" fill="#000000"></path>
	<path d="M24.251 6.388h-2.898l-2.543-1.479-2.543 1.479h-2.957l-1.36 2.543-2.366 1.479v0.887h18.396v-0.887l-2.366-1.479z" fill="#F1C40F" fill="#000000"></path>
	<path d="M13.309 25.434h2.958l2.543 1.479 2.543-1.479h2.898l1.36-2.603 2.366-1.479v-0.237h-18.396v0.237l2.366 1.479z" fill="#F1C40F" fill="#000000"></path>
	<path d="M5.856 20.525h31.349l-1.893-4.555 1.893-4.081h-36.85l1.893 4.377-1.893 4.259z" fill="#C1392B" fill="#000000"></path>
	<path d="M17.331 15.793c0 0.828-0.237 1.479-0.651 2.011-0.414 0.473-1.006 0.71-1.774 0.71s-1.36-0.237-1.774-0.71c-0.414-0.473-0.651-1.124-0.651-2.011 0-0.828 0.237-1.538 0.651-2.011s1.006-0.71 1.774-0.71c0.769 0 1.36 0.237 1.774 0.71 0.473 0.473 0.651 1.183 0.651 2.011zM13.131 15.793c0 0.71 0.177 1.242 0.473 1.597s0.769 0.532 1.301 0.532c0.591 0 1.006-0.177 1.301-0.532s0.473-0.887 0.473-1.597c0-0.71-0.177-1.242-0.473-1.597s-0.71-0.532-1.301-0.532c-0.591 0-1.006 0.177-1.36 0.532-0.237 0.355-0.414 0.887-0.414 1.597z" fill="#FFFFFF" fill="#000000"></path>
	<path d="M20.229 14.433c0.177 0 0.355 0 0.473 0.059l-0.059 0.532c-0.177-0.059-0.296-0.059-0.414-0.059-0.296 0-0.591 0.118-0.828 0.414-0.237 0.237-0.355 0.591-0.355 0.946v2.129h-0.591v-3.963h0.473l0.059 0.71c0.118-0.237 0.296-0.473 0.532-0.591s0.473-0.177 0.71-0.177z" fill="#FFFFFF" fill="#000000"></path>
	<path d="M24.843 16.444c0 0.651-0.177 1.124-0.473 1.479s-0.769 0.532-1.36 0.532c-0.355 0-0.651-0.059-0.946-0.237s-0.473-0.414-0.651-0.71-0.237-0.651-0.237-1.065c0-0.651 0.177-1.124 0.473-1.479s0.769-0.532 1.36-0.532c0.532 0 1.006 0.177 1.301 0.532 0.355 0.355 0.532 0.887 0.532 1.479zM21.826 16.444c0 0.532 0.118 0.887 0.296 1.124s0.473 0.414 0.887 0.414 0.71-0.118 0.887-0.414 0.296-0.651 0.296-1.183c0-0.473-0.118-0.887-0.296-1.124s-0.473-0.414-0.887-0.414c-0.414 0-0.71 0.118-0.887 0.414s-0.296 0.651-0.296 1.183z" fill="#FFFFFF" fill="#000000"></path>
</svg>
